<?xml version="1.0" encoding="utf-8"?>
<!-- Generator: Adobe Illustrator 19.2.1, SVG Export Plug-In . SVG Version: 6.00 Build 0)  -->
<svg version="1.1" id="layer" xmlns="http://www.w3.org/2000/svg" xmlns:xlink="http://www.w3.org/1999/xlink" x="0px" y="0px"
	 viewBox="0 0 652 652" style="enable-background:new 0 0 652 652;" xml:space="preserve">
<style type="text/css">
	.st0{fill:#3D195B;}
</style>
<path class="st0" d="M77.1,357.1c-19.4,0-31.9-14-31.9-34.8c0-20.8,12.4-34.8,31.9-34.8c13.5,0,23.5,6.3,29.1,15.9l16.8-14.5
	c-8.9-13.7-23.6-23.5-45.9-23.5c-35.5,0-56.5,26.4-56.5,56.9c0,30.5,21,56.9,56.5,56.9c22.2,0,36.9-9.8,45.9-23.5l-16.8-14.5
	C100.6,350.8,90.6,357.1,77.1,357.1 M239.6,379.2c33.3,0,56.7-23.5,56.7-56.9c0-33.4-23.5-56.9-56.7-56.9S183,288.9,183,322.3
	C183,355.8,206.3,379.2,239.6,379.2 M239.6,357.3c-19.1,0-32.4-14.4-32.4-35c0-20.7,13.3-35,32.4-35c19.3,0,32.6,14.4,32.6,35
	C272.1,343,258.8,357.3,239.6,357.3 M388.3,377.4h25.5v-87.9h37.3l-1.9-22.4h-95.9l-1.9,22.4h36.9V377.4z M580.5,350.8
	c0-10,2.5-14.7,12.4-25.9l10.5-11.9c12.1-13.8,17.1-25,17.1-43.4v-2.4h-25.2v1.9c0,15.8-2.8,21.7-12.6,32.9l-7.3,8.4
	c-4.2,4.9-7.2,9.6-7.2,9.6s-3-4.7-7.2-9.6l-7.4-8.4c-9.8-11.2-12.6-17.1-12.6-32.9v-1.9h-25.9v2.4c0,18.4,5.1,29.6,17.2,43.4
	l10.5,11.9c10,11.2,12.4,15.9,12.4,25.9v26.6h25.2V350.8z"/>
</svg>
